<?xml version="1.0" standalone="no"?><!DOCTYPE svg PUBLIC "-//W3C//DTD SVG 1.1//EN" "http://www.w3.org/Graphics/SVG/1.1/DTD/svg11.dtd"><svg t="1517622448266" class="icon" style="" viewBox="0 0 1024 1024" version="1.1" xmlns="http://www.w3.org/2000/svg" p-id="4197" xmlns:xlink="http://www.w3.org/1999/xlink" width="200" height="200"><defs><style type="text/css"></style></defs><path d="M82 82v860h860V82H82z m50 810V764.6l222.3-222.3 205.8 205.8L416.3 892H132z m760 0H487l262.9-262.9L892 771.2V892z m0-191.5L749.9 558.4 595.5 712.7 354.3 471.5 132 693.9V132h760v568.5zM671 478.1c71.8 0 130-58.2 130-130s-58.2-130-130-130-130 58.2-130 130 58.2 130 130 130z m0-210c44.1 0 80 35.9 80 80s-35.9 80-80 80-80-35.9-80-80c0-44.2 35.9-80 80-80z" fill="" p-id="4198"></path></svg>