<?xml version="1.0" encoding="utf-8"?>
<!-- Generator: Adobe Illustrator 21.0.0, SVG Export Plug-In . SVG Version: 6.00 Build 0)  -->
<svg version="1.1" id="图层_1" xmlns="http://www.w3.org/2000/svg" xmlns:xlink="http://www.w3.org/1999/xlink" x="0px" y="0px"
	 viewBox="0 0 200 200" style="enable-background:new 0 0 200 200;" xml:space="preserve">
<style type="text/css">
	.st0{fill:#DDDDDD;}
</style>
<path class="st0" d="M152.7,104.5c0,2.9,1.2,5.8,3.3,7.9c2.1,2.1,5,3.3,7.9,3.3c2.9,0,5.8-1.2,7.9-3.3c2.1-2.1,3.3-5,3.3-7.9
	c0-2.9-1.2-5.8-3.3-7.9c-2.1-2.1-5-3.3-7.9-3.3c-2.9,0-5.8,1.2-7.9,3.3C153.9,98.6,152.7,101.6,152.7,104.5L152.7,104.5z"/>
<path class="st0" d="M25.7,104.5c0,3.8,1.6,7.6,4.3,10.4c2.7,2.7,6.5,4.3,10.4,4.3s7.6-1.6,10.4-4.3c2.7-2.7,4.3-6.5,4.3-10.4
	c0-3.8-1.6-7.6-4.3-10.4c-2.7-2.7-6.5-4.3-10.4-4.3s-7.6,1.6-10.4,4.3C27.3,96.8,25.7,100.6,25.7,104.5L25.7,104.5z"/>
<path class="st0" d="M90.9,166.2c0,2.9,1.2,5.8,3.3,7.9c2.1,2.1,5,3.3,7.9,3.3c2.9,0,5.8-1.2,7.9-3.3c2.1-2.1,3.3-5,3.3-7.9
	c0-2.9-1.2-5.8-3.3-7.9c-2.1-2.1-5-3.3-7.9-3.3c-2.9,0-5.8,1.2-7.9,3.3C92.1,160.4,90.9,163.3,90.9,166.2L90.9,166.2z"/>
<path class="st0" d="M83,42.7c0,5,2.1,10,5.6,13.5c3.5,3.5,8.5,5.6,13.5,5.6c5,0,10-2.1,13.5-5.6c3.5-3.5,5.6-8.5,5.6-13.5
	c0-5-2.1-10-5.6-13.5c-3.5-3.5-8.5-5.6-13.5-5.6c-5,0-10,2.1-13.5,5.6C85,32.7,83,37.7,83,42.7L83,42.7z"/>
<path class="st0" d="M134.6,148.1c0,2.9,1.2,5.8,3.3,7.9c2.1,2.1,5,3.3,7.9,3.3c2.9,0,5.8-1.2,7.9-3.3c2.1-2.1,3.3-5,3.3-7.9
	c0-2.9-1.2-5.8-3.3-7.9c-2.1-2.1-5-3.3-7.9-3.3c-2.9,0-5.8,1.2-7.9,3.3C135.8,142.3,134.6,145.2,134.6,148.1L134.6,148.1z"/>
<path class="st0" d="M41.7,60.8c0,4.4,1.8,8.7,4.9,11.8c3.1,3.1,7.5,4.9,11.9,4.9s8.7-1.8,11.8-4.9c3.1-3.1,4.9-7.5,4.9-11.8
	c0-4.4-1.8-8.7-4.9-11.9c-3.1-3.1-7.5-4.9-11.8-4.9c-4.4,0-8.7,1.8-11.9,4.9C43.5,52.1,41.7,56.4,41.7,60.8L41.7,60.8z"/>
<path class="st0" d="M47.3,148.1c0,2.9,1.2,5.8,3.3,7.9c2.1,2.1,5,3.3,7.9,3.3c2.9,0,5.8-1.2,7.9-3.3c2.1-2.1,3.3-5,3.3-7.9
	c0-2.9-1.2-5.8-3.3-7.9c-2.1-2.1-5-3.3-7.9-3.3c-2.9,0-5.8,1.2-7.9,3.3C48.5,142.3,47.3,145.2,47.3,148.1L47.3,148.1z"/>
<path class="st0" d="M134.6,60.8c0,2.9,1.2,5.8,3.3,7.9c2.1,2.1,5,3.3,7.9,3.3c2.9,0,5.8-1.2,7.9-3.3c2.1-2.1,3.3-5,3.3-7.9
	c0-2.9-1.2-5.8-3.3-7.9c-2.1-2.1-5-3.3-7.9-3.3c-2.9,0-5.8,1.2-7.9,3.3C135.8,55,134.6,57.9,134.6,60.8L134.6,60.8z"/>
</svg>
